<svg width="57" height="2" viewBox="0 0 57 2" fill="none" xmlns="http://www.w3.org/2000/svg">
<path fill-rule="evenodd" clip-rule="evenodd" d="M29.9067 2.00025L37.8923 2.00024C38.4446 2.00024 38.8923 1.55253 38.8923 1.00024C38.8923 0.447959 38.4446 0.000243843 37.8923 0.000244141L29.9067 0.00024879C29.3544 0.000249147 28.9067 0.447965 28.9067 1.00025C28.9067 1.55253 29.3544 2.00025 29.9067 2.00025ZM1.95703 2.00027L9.94265 2.00026C10.4949 2.00026 10.9426 1.55254 10.9426 1.00026C10.9426 0.447975 10.4949 0.000260115 9.94265 0.000260472L1.95703 0.000265121C1.40475 0.000265419 0.957031 0.447981 0.957031 1.00027C0.957033 1.55255 1.40475 2.00027 1.95703 2.00027Z" fill="#AEA69B"/>
</svg>
