<?xml version="1.0" standalone="no"?><svg xmlns="http://www.w3.org/2000/svg" viewBox="0 0 1440 320"><path fill="#f3f4f5" fill-opacity="1" d="M0,96L34.3,90.7C68.6,85,137,75,206,90.7C274.3,107,343,149,411,181.3C480,213,549,235,617,218.7C685.7,203,754,149,823,117.3C891.4,85,960,75,1029,80C1097.1,85,1166,107,1234,96C1302.9,85,1371,43,1406,21.3L1440,0L1440,320L1405.7,320C1371.4,320,1303,320,1234,320C1165.7,320,1097,320,1029,320C960,320,891,320,823,320C754.3,320,686,320,617,320C548.6,320,480,320,411,320C342.9,320,274,320,206,320C137.1,320,69,320,34,320L0,320Z"></path></svg>